<svg width="142" height="80" viewBox="0 0 142 80" fill="none" xmlns="http://www.w3.org/2000/svg">
<path d="M39.8735 80L101.899 80C123.885 80 141.772 62.0556 141.772 40C141.772 17.9444 123.885 -5.37849e-06 101.899 -7.30054e-06L39.8735 -1.2723e-05C17.8877 -1.4645e-05 3.59426e-05 17.9444 3.40145e-05 40C3.20863e-05 62.0555 17.8877 80 39.8735 80ZM39.8735 8.88888C46.0072 8.88888 52.0032 10.7135 57.1032 14.132C62.2032 17.5506 66.1782 22.4095 68.5254 28.0943C70.8727 33.7791 71.4869 40.0345 70.2902 46.0695C69.0936 52.1044 66.1399 57.6479 61.8027 61.9989C57.4655 66.3498 51.9396 69.3129 45.9237 70.5133C39.9079 71.7137 33.6723 71.0976 28.0054 68.7429C22.3386 66.3882 17.4951 62.4006 14.0874 57.2844C10.6797 52.1682 8.8608 46.1532 8.8608 40C8.86959 31.7515 12.1398 23.8434 17.9539 18.0109C23.768 12.1783 31.6511 8.8977 39.8735 8.88888Z" fill="#D9DBE9"/>
</svg>
