<svg width="143" height="80" viewBox="0 0 143 80" fill="none" xmlns="http://www.w3.org/2000/svg">
<path d="M102.222 0H40C17.9444 0 0 17.9444 0 40C0 62.0556 17.9444 80 40 80H102.222C124.278 80 142.222 62.0556 142.222 40C142.222 17.9444 124.278 0 102.222 0ZM102.222 71.1111C96.069 71.1111 90.054 69.2865 84.9378 65.8679C79.8216 62.4494 75.834 57.5905 73.4793 51.9057C71.1246 46.2209 70.5085 39.9655 71.7089 33.9305C72.9093 27.8956 75.8724 22.3521 80.2234 18.0011C84.5743 13.6502 90.1178 10.6871 96.1527 9.48668C102.188 8.28625 108.443 8.90236 114.128 11.2571C119.813 13.6118 124.672 17.5994 128.09 22.7156C131.509 27.8318 133.333 33.8468 133.333 40C133.325 48.2485 130.044 56.1566 124.211 61.9891C118.379 67.8217 110.471 71.1023 102.222 71.1111Z" fill="#FFCE00"/>
</svg>
